<svg width="102" height="103" viewBox="0 0 102 103" fill="none" xmlns="http://www.w3.org/2000/svg">
<g opacity="0.4" clip-path="url(#clip0_211_10938)">
<path d="M102 51.5C102 68.0599 94.2584 82.7951 82.2307 92.2166C73.6024 98.9768 62.7675 103 51 103C39.2325 103 28.3976 98.9768 19.7693 92.2166C7.74164 82.7951 0 68.0599 0 51.5C0 23.0573 22.8335 0 51 0C79.1665 0 102 23.0573 102 51.5Z" fill="#F2F2F2"/>
<path d="M88.0532 24.0348L82.2308 92.2166C73.6025 98.9768 62.7676 103 51.0001 103C39.2327 103 28.3978 98.9768 19.7694 92.2166L13.947 24.0348H88.0532Z" fill="#006BC0"/>
<path d="M50.9995 30.4449V101.651L75.3584 94.7071L80.7923 30.4449H50.9995Z" fill="#0096DC"/>
<path d="M72.5229 58.297H54.9546L73.3124 48.8626L74.1057 39.3786H27.8933L28.7019 49.0479H47.2526L29.4536 58.0349L30.2817 67.9404H62.032L60.9913 79.7377L50.9995 82.4704L40.5913 79.5275L40.3311 72.1704H30.6356L31.8484 86.6745L50.9995 92.1398L70.1504 86.6745L72.5235 58.2954L72.5229 58.297Z" fill="white"/>
<path d="M32.9413 13.5236V6.79699H42.5168V3.15356H29.4719V17.167H42.5168V13.5236H32.9413Z" fill="#222123"/>
<path d="M48.1198 8.6363V6.95451H57.6434V6.79699V3.15356H44.5984V11.8418H53.9483V13.5236H44.5984V17.167H57.6434V13.5236V8.6363H48.1198Z" fill="#222123"/>
<path d="M63.0033 8.6363V6.95451H72.5268V6.79699V3.15356H59.4819V11.8418H68.8319V13.5236H59.4819V17.167H72.5268V13.5236V8.6363H63.0033Z" fill="#222123"/>
</g>
<defs>
<clipPath id="clip0_211_10938">
<rect width="102" height="103" fill="white"/>
</clipPath>
</defs>
</svg>
