<svg width="102" height="103" viewBox="0 0 102 103" fill="none" xmlns="http://www.w3.org/2000/svg">
<g opacity="0.4" clip-path="url(#clip0_211_10948)">
<path d="M102 51.5C102 68.0599 94.2584 82.7951 82.2307 92.2166C73.6024 98.9768 62.7675 103 51 103C39.3387 103 28.5933 99.0482 20.0024 92.3972C7.84145 82.9864 0 68.1671 0 51.5C0 23.0573 22.8335 0 51 0C79.1665 0 102 23.0573 102 51.5Z" fill="#F2F2F2"/>
<path d="M88.0532 24.0348L82.2308 92.2166C73.6024 98.9768 62.7675 103 51.0001 103C39.3388 103 28.5933 99.0482 20.0024 92.3972L14.1655 24.0348H88.0532Z" fill="#E64C18"/>
<path d="M51.1089 30.427V101.424L75.3964 94.5005L80.8142 30.427H51.1089Z" fill="#F36518"/>
<path d="M28.0706 39.3347L30.4522 67.8132H62.1087L61.0729 79.5772L51.1094 82.3018L40.7323 79.3663L40.4717 72.0318H30.8054L32.0155 86.4921L51.1094 91.9412L70.2031 86.4921L72.5695 58.198H39.2318L38.4044 48.9765L38.4042 48.9761L73.3576 48.7912L74.1481 39.3347H28.0706Z" fill="white"/>
<path d="M30.1136 3.37888V8.27158H25.4842V3.37888H21.1775V17.404H25.4842V12.8378H30.1136V17.404H34.4204V3.37888H30.1136Z" fill="black"/>
<path d="M49.7093 3.37888H36.4661V8.27158H40.7728V17.513H45.4026V8.27158H49.7093V3.37888Z" fill="black"/>
<path d="M74.3652 13.0551V3.48773H69.7354V13.0551V17.513H74.3652H81.0402V13.0551H74.3652Z" fill="black"/>
<path d="M62.7367 3.48773L59.507 8.48886L56.2769 3.48773H51.6472V17.513H56.2769V10.5545L59.507 15.556L62.7367 10.5545V17.513H67.3666V3.48773H62.7367Z" fill="black"/>
</g>
<defs>
<clipPath id="clip0_211_10948">
<rect width="102" height="103" fill="white"/>
</clipPath>
</defs>
</svg>
