<svg width="89" height="89" viewBox="0 0 89 89" fill="none" xmlns="http://www.w3.org/2000/svg">
<g opacity="0.4">
<path d="M0 0H89V89H0V0Z" fill="#FFDF00"/>
<path d="M59.7857 69.5316C61.5784 72.4587 63.9108 74.6102 68.0359 74.6102C71.5012 74.6102 73.7149 72.8782 73.7149 70.4851C73.7149 67.6173 71.4405 66.6016 67.6262 64.9332L65.5354 64.0361C59.5003 61.465 55.4911 58.2439 55.4911 51.4348C55.4911 45.1623 60.2703 40.3875 67.7392 40.3875C73.0566 40.3875 76.8795 42.238 79.6341 47.0837L73.1216 51.2653C71.6877 48.6942 70.1408 47.6813 67.7392 47.6813C65.2896 47.6813 63.737 49.2353 63.737 51.2653C63.737 53.7743 65.291 54.79 68.8792 56.344L70.97 57.2396C78.0759 60.2868 82.0879 63.3933 82.0879 70.3777C82.0879 77.9074 76.1728 82.0325 68.2292 82.0325C60.4623 82.0325 55.4444 78.3312 52.989 73.48L59.7857 69.5316ZM30.2419 70.2563C31.5557 72.5874 32.7509 74.5581 35.6243 74.5581C38.372 74.5581 40.1054 73.4829 40.1054 69.3029V40.8651H48.4686V69.4157C48.4686 78.0755 43.3915 82.017 35.9803 82.017C29.2841 82.017 25.4063 78.5516 23.4341 74.3778L30.2419 70.2563Z" fill="black"/>
</g>
</svg>
