<?xml version="1.0" encoding="UTF-8"?>
<!DOCTYPE svg PUBLIC "-//W3C//DTD SVG 1.1//EN" "http://www.w3.org/Graphics/SVG/1.1/DTD/svg11.dtd">
<!-- Creator: CorelDRAW 2018 (64-Bit) -->
<svg xmlns="http://www.w3.org/2000/svg" xml:space="preserve" width="297mm" height="210mm" version="1.1" style="shape-rendering:geometricPrecision; text-rendering:geometricPrecision; image-rendering:optimizeQuality; fill-rule:evenodd; clip-rule:evenodd"
viewBox="0 0 29700 21000"
 xmlns:xlink="http://www.w3.org/1999/xlink">
 <defs>
  <style type="text/css">
   <![CDATA[
    .fil0 {fill:#022E8A}
    .fil1 {fill:#C63136}
   ]]>
  </style>
 </defs>
 <g id="Layer_x0020_1">
  <metadata id="CorelCorpID_0Corel-Layer"/>
  <g id="_2853959464656">
   <path class="fil0" d="M29700 9523.75l0 10134.05 -29700 0 0 -12900.59c865.47,-148.31 1661.5,-92.53 2408.61,-6.97 1443.57,165.33 3212.63,903.29 5046.48,1660.16 1768.4,729.84 3597.84,1473.66 5214.47,1931.54 3978.34,1212.3 6863.35,1445.67 9822.92,1150.9 2319.41,-231 4477.35,-778.2 7207.52,-1969.09z"/>
   <path class="fil1" d="M22492.48 11492.84c-2959.57,294.77 -5844.58,61.4 -9822.92,-1150.9 -1616.63,-457.88 -3446.07,-1201.7 -5214.47,-1931.54 -1833.85,-756.87 -3602.91,-1494.83 -5046.48,-1660.16 -747.11,-85.56 -1543.14,-141.34 -2408.61,6.97l0 1.92c865.47,-151.4 1661.5,-94.46 2408.61,-7.11 1443.57,168.78 3212.63,922.14 5046.48,1694.8 1768.4,745.07 3597.84,1504.42 5214.47,1971.85 3978.34,1237.6 6863.34,1475.84 9822.92,1174.92 2319.41,-235.83 4477.35,-854.1 7207.52,-2069.84 -2730.17,1190.89 -4888.11,1738.09 -7207.52,1969.09z"/>
  </g>
 </g>
</svg>
